<?xml version="1.0" encoding="utf-8"?>
<!-- Generator: Adobe Illustrator 16.0.0, SVG Export Plug-In . SVG Version: 6.00 Build 0)  -->
<!DOCTYPE svg PUBLIC "-//W3C//DTD SVG 1.1//EN" "http://www.w3.org/Graphics/SVG/1.1/DTD/svg11.dtd">
<svg version="1.1" id="Layer_1" xmlns="http://www.w3.org/2000/svg" xmlns:xlink="http://www.w3.org/1999/xlink" x="0px" y="0px"
	 width="841.89px" height="595.275px" viewBox="0 0 841.89 595.275" enable-background="new 0 0 841.89 595.275"
	 xml:space="preserve">
<g id="Ebene_x0020_1">
	<g id="_153574520">
		<path id="_153577136" fill="#FFFFFF" d="M252.227,238.353c7.019,0,15.135-1.754,24.349-5.264v22.593
			c-2.048,0.731-4.972,1.535-8.775,2.414c1.169,3.362,1.755,6.507,1.755,9.432c0,9.359-2.815,17.512-8.445,24.458
			c-5.63,6.946-12.907,11.079-21.827,12.394c-5.849,0.878-8.773,4.022-8.773,9.433c0,1.901,0.95,3.803,2.852,5.703
			c2.486,2.779,6.142,4.535,10.967,5.266c20.913,3.217,31.368,11.918,31.368,26.103c0,22.669-13.527,34.002-40.581,34.002
			c-11.114,0-20.255-1.974-27.419-5.923c-9.068-4.972-13.601-12.796-13.601-23.473c0-12.283,6.8-20.691,20.399-25.225v-0.438
			c-4.971-3.071-7.457-7.751-7.457-14.04c0-8.189,2.34-13.309,7.02-15.354v-0.439c-4.68-1.608-8.848-5.266-12.504-10.969
			c-4.095-6.142-6.142-12.723-6.142-19.742c0-10.529,3.729-19.303,11.187-26.322c7.167-6.581,15.721-9.871,25.666-9.871
			C239.431,233.089,246.084,234.844,252.227,238.353L252.227,238.353z M253.104,353.735L253.104,353.735
			c0-7.459-6.141-11.188-18.426-11.188c-11.845,0-17.768,3.875-17.768,11.627c0,7.603,6.435,11.405,19.303,11.405
			C247.474,365.58,253.104,361.633,253.104,353.735z M219.323,269.502L219.323,269.502c0,10.091,4.607,15.136,13.819,15.136
			c8.921,0,13.381-5.119,13.381-15.355c0-4.241-1.024-7.896-3.071-10.968c-2.486-3.363-5.922-5.046-10.31-5.046
			C223.93,253.269,219.323,258.681,219.323,269.502z"/>
		<path id="_153577064" fill="#FFFFFF" d="M299.836,217.074c-4.241,0-7.86-1.607-10.858-4.825
			c-2.998-3.218-4.497-7.019-4.497-11.406c0-4.534,1.499-8.408,4.497-11.626c2.999-3.218,6.617-4.826,10.858-4.826
			c4.095,0,7.641,1.608,10.639,4.826s4.497,7.092,4.497,11.626c0,4.388-1.499,8.188-4.497,11.406S303.931,217.074,299.836,217.074z"
			/>
		<path id="_153576992" fill="#FFFFFF" d="M287.333,331.58c0.292-2.924,0.438-7.896,0.438-14.916v-68.222
			c0-6.872-0.146-11.625-0.438-14.258h24.788c-0.293,2.779-0.439,7.386-0.439,13.82v67.343c0,7.459,0.146,12.869,0.439,16.232
			H287.333z"/>
		<path id="_153576920" fill="#FFFFFF" d="M357.51,234.185h19.084v21.277c-0.73,0-2.084-0.072-4.059-0.219
			c-1.974-0.146-3.838-0.22-5.594-0.22h-9.432v40.801c0,9.798,3.217,14.697,9.652,14.697c4.533,0,8.627-1.242,12.284-3.729v21.936
			c-5.411,2.926-11.919,4.388-19.524,4.388c-10.675,0-18.059-3.802-22.154-11.406c-3.071-5.704-4.607-14.696-4.607-26.981v-39.266
			h0.219v-0.438l-3.29-0.219c-1.901,0-4.387,0.219-7.458,0.657v-21.277h10.748v-8.555c0-4.095-0.219-7.386-0.658-9.871h25.445
			c-0.438,2.778-0.658,5.923-0.658,9.432V234.185L357.51,234.185z"/>
		<path id="_153576848" fill="#FFFFFF" d="M434.561,233.526c-6.287,0-12.869,2.194-19.742,6.58V201.72
			c0-8.335,0.146-13.819,0.439-16.451H390.25c0.439,2.34,0.658,7.823,0.658,16.451v116.041c0,6.726-0.219,11.334-0.658,13.819
			h25.445c0-0.439-0.145-2.229-0.438-5.374s-0.439-5.96-0.439-8.445v-53.963c5.119-4.825,10.09-7.237,14.916-7.237
			c5.559,0,9.799,2.777,12.724,8.334c2.192,4.388,3.29,9.872,3.29,16.453l-0.219,29.612c0,4.974-0.365,11.847-1.098,20.62h26.542
			c-0.584-3.655-0.877-10.383-0.877-20.182v-30.051c0-12.724-2.851-23.545-8.556-32.466
			C455.108,238.645,446.114,233.526,434.561,233.526z"/>
		<path id="_153576776" fill="#FFFFFF" d="M512.221,332.458c-11.553,0-20.107-5.119-25.665-15.356
			c-4.387-8.335-6.581-19.23-6.581-32.684v-30.052c0-9.944-0.291-16.672-0.877-20.182h26.323c-0.439,3.218-0.731,10.091-0.878,20.62
			l-0.219,29.613c0,8.335,0.951,14.332,2.852,17.986c2.193,4.535,6.215,6.802,12.064,6.802c4.096,0,8.701-2.414,13.82-7.238v-53.963
			c0-2.486-0.147-5.339-0.439-8.556c-0.294-3.218-0.438-4.972-0.438-5.265h25.444c-0.291,2.486-0.438,7.093-0.438,13.82v67.124
			c0,8.627,0.147,14.111,0.438,16.451h-23.909v-7.896C526.991,329.532,519.826,332.458,512.221,332.458L512.221,332.458z"/>
		<path id="_153576704" fill="#FFFFFF" d="M610.941,332.237c-7.896,0-14.477-2.851-19.742-8.553v7.896h-23.252
			c0.438-2.485,0.659-7.094,0.659-13.819V201.72c0-8.628-0.221-14.111-0.659-16.451h25.007c-0.293,2.632-0.438,8.116-0.438,16.451
			v38.169c6.725-4.241,13.308-6.362,19.741-6.362c11.554,0,20.62,5.118,27.2,15.355c5.557,8.921,8.336,19.742,8.336,32.466
			c0,13.015-2.924,24.348-8.773,34C632,326.608,622.641,332.237,610.941,332.237z M607.651,256.561L607.651,256.561
			c-4.826,0-9.871,2.412-15.135,7.237v37.949c4.68,4.533,9.285,6.802,13.818,6.802c5.703,0,10.018-3.145,12.943-9.434
			c2.34-4.972,3.51-10.896,3.51-17.768C622.788,264.822,617.741,256.561,607.651,256.561L607.651,256.561z"/>
		<g>
			<path id="_153576632" fill="#FFFFFF" d="M304.422,352.605c-1.391-1.888-3.181-3.081-5.616-3.081c-2.337,0-4.573,1.79-4.573,4.226
				c0,6.312,14.861,3.677,14.861,16.253c0,7.506-4.672,12.823-12.327,12.823c-5.169,0-8.947-2.981-11.532-7.307l4.723-4.623
				c0.993,2.884,3.627,5.468,6.759,5.468c2.982,0,4.822-2.534,4.822-5.418c0-3.877-3.579-4.97-6.511-6.112
				c-4.822-1.988-8.352-4.424-8.352-10.239c0-6.213,4.623-11.233,10.936-11.233c3.33,0,7.953,1.641,10.239,4.175L304.422,352.605
				L304.422,352.605z"/>
			<path id="_153576560" fill="#FFFFFF" d="M329.667,382.826c-11.433,0-18.541-8.748-18.541-19.783
				c0-11.133,7.356-19.682,18.541-19.682c11.183,0,18.54,8.549,18.54,19.682C348.207,374.078,341.1,382.826,329.667,382.826z
				 M329.667,350.569L329.667,350.569c-6.909,0-10.986,6.112-10.986,12.177c0,5.765,2.883,12.873,10.986,12.873
				c8.101,0,10.983-7.108,10.983-12.873C340.651,356.682,336.575,350.569,329.667,350.569z"/>
			<path id="_153576488" fill="#FFFFFF" d="M376.83,354.295c-2.038-2.484-5.12-3.976-8.251-3.976
				c-7.009,0-11.035,6.461-11.035,12.925c0,6.312,4.176,12.623,10.985,12.623c3.132,0,6.263-1.641,8.301-3.975v8.696
				c-2.734,1.294-5.468,2.237-8.501,2.237c-10.536,0-18.34-9.096-18.34-19.434c0-10.638,7.506-20.031,18.49-20.031
				c2.932,0,5.814,0.796,8.351,2.187V354.295z"/>
			<polygon id="_153576416" fill="#FFFFFF" points="388.952,381.832 381.646,381.832 381.646,344.355 388.952,344.355 			"/>
			<path id="_153576344" fill="#FFFFFF" d="M401.922,373.93l-3.082,7.902h-7.703l14.613-38.471h5.666l14.216,38.471h-7.805
				l-2.882-7.902H401.922z M408.235,354.345L408.235,354.345h-0.099l-4.126,13.621h8.897L408.235,354.345L408.235,354.345z"/>
			<polygon id="_153576272" fill="#FFFFFF" points="435.168,375.471 445.507,375.471 445.507,381.832 427.863,381.832 
				427.863,344.355 435.168,344.355 			"/>
			<path id="_153576200" fill="#FFFFFF" d="M487.25,354.295c-2.037-2.484-5.119-3.976-8.25-3.976
				c-7.009,0-11.035,6.461-11.035,12.925c0,6.312,4.176,12.623,10.984,12.623c3.132,0,6.264-1.641,8.301-3.975v8.696
				c-2.733,1.294-5.467,2.237-8.499,2.237c-10.537,0-18.341-9.096-18.341-19.434c0-10.638,7.506-20.031,18.49-20.031
				c2.932,0,5.814,0.796,8.35,2.187V354.295z"/>
			<path id="_153576128" fill="#FFFFFF" d="M508.82,382.826c-11.433,0-18.54-8.748-18.54-19.783c0-11.133,7.356-19.682,18.54-19.682
				c11.183,0,18.539,8.549,18.539,19.682C527.359,374.078,520.25,382.826,508.82,382.826z M508.82,350.569L508.82,350.569
				c-6.909,0-10.985,6.112-10.985,12.177c0,5.765,2.884,12.873,10.985,12.873s10.985-7.108,10.985-12.873
				C519.805,356.682,515.728,350.569,508.82,350.569z"/>
			<path id="_153576056" fill="#FFFFFF" d="M530.93,344.355h10.439c10.834,0,18.091,8.102,18.091,18.787
				c0,10.539-7.454,18.689-18.142,18.689H530.93V344.355z M538.239,375.471L538.239,375.471h1.191
				c8.996,0,12.477-4.971,12.477-12.378c0-8.15-4.175-12.375-12.477-12.375h-1.191V375.471z"/>
			<polygon id="_153575504" fill="#FFFFFF" points="570.34,381.832 563.032,381.832 563.032,344.355 570.34,344.355 			"/>
			<polygon id="_153574688" fill="#FFFFFF" points="575.655,343.361 580.924,343.361 600.657,369.556 600.756,369.556 
				600.756,344.355 608.063,344.355 608.063,382.578 602.793,382.578 583.062,356.384 582.963,356.384 582.963,381.832 
				575.655,381.832 			"/>
			<path id="_153575624" fill="#FFFFFF" d="M646.479,361.901v0.944c0,10.586-5.418,19.98-17.049,19.98
				c-10.936,0-17.844-9.244-17.844-19.582c0-10.688,7.107-19.883,18.291-19.883c6.361,0,11.93,3.231,14.812,8.946l-6.461,3.479
				c-1.492-3.379-4.674-5.964-8.551-5.964c-7.059,0-10.537,7.207-10.537,13.421c0,6.211,3.529,13.12,10.588,13.12
				c4.572,0,8.4-3.976,8.549-8.5h-7.953v-5.963H646.479z"/>
		</g>
	</g>
</g>
</svg>
